<?xml version="1.0" encoding="UTF-8"?>
<svg width="300px" height="300px" viewBox="0 0 300 300" version="1.1" xmlns="http://www.w3.org/2000/svg" xmlns:xlink="http://www.w3.org/1999/xlink">
    <!-- Generator: Sketch 39.1 (31720) - http://www.bohemiancoding.com/sketch -->
    <title>3</title>
    <desc>Created with Sketch.</desc>
    <defs></defs>
    <g id="Page-1" stroke="none" stroke-width="1" fill="none" fill-rule="evenodd">
        <g id="3">
            <g id="Group">
                <g opacity="0.6" transform="translate(271.000000, 61.000000)" id="Shape" fill="#1C75BC">
                    <path d="M10.9,16.1 C7.7,10.6 4.2,5.5 0.3,0.8 C10.4,14.7 18.2,30.4 23.1,47.4 C20.8,36.6 16.7,26.1 10.9,16.1 L10.9,16.1 Z"></path>
                </g>
                <g opacity="0.6" transform="translate(6.000000, 62.000000)" id="Shape" fill="#27AAE1">
                    <path d="M12.2,15.1 C6.6,24.8 2.6,35 0.2,45.3 C5,29.1 12.5,14 22.1,0.6 C18.5,5.1 15.1,9.9 12.2,15.1 L12.2,15.1 Z"></path>
                </g>
                <path d="M294.1,108.4 C303,148.4 289,190.8 256.9,217.5 C244.4,265 201.2,300 149.9,300 L150,300 C232.8,300 300,232.8 300,150 C300,135.6 298,121.6 294.1,108.4 L294.1,108.4 Z" id="Shape" fill="#A1DDF5"></path>
                <path d="M42.6,217.1 C10.6,190.1 -3.2,147.4 6.2,107.3 C2.2,120.8 0,135.2 0,150 C0,231.8 65.5,298.3 146.9,300 C96.6,298.6 54.7,263.8 42.6,217.1 L42.6,217.1 Z" id="Shape" fill="#A1DDF5"></path>
                <path d="M150,27.7 C193.4,12.8 241.9,26.3 271.3,61.8 C244,24.3 199.9,0 150,0 C99.8,0 55.3,24.7 28.1,62.6 C57.4,26.5 106.3,12.6 150,27.7 L150,27.7 Z" id="Shape" fill="#A1DDF5"></path>
                <g opacity="0.6" transform="translate(42.000000, 217.000000)" id="Shape" fill="#2B3990">
                    <path d="M214.9,0.5 C210.1,4.5 204.9,8.1 199.4,11.3 C170.5,28 137.3,30.2 108,20.1 C78.8,30.1 45.5,27.9 16.6,11.3 C10.8,8 5.5,4.2 0.5,0 C12.6,46.8 54.5,81.6 104.8,82.9 L107.8,82.9 C159.3,83 202.5,48 214.9,0.5 L214.9,0.5 Z"></path>
                </g>
                <path d="M256.9,217.5 C252.1,221.5 246.9,225.1 241.4,228.3 C212.5,245 179.3,247.2 150,237.1 C120.8,247.1 87.5,244.9 58.6,228.3 C52.8,225 47.5,221.2 42.5,217 C54.6,263.8 96.5,298.6 146.8,299.9 L149.8,299.9 C201.3,300 244.5,265 256.9,217.5 L256.9,217.5 Z" id="Shape" fill="#68AAD8"></path>
                <g opacity="0.6" transform="translate(150.000000, 21.000000)" id="Shape" fill="#1C75BC">
                    <path d="M0,6.7 C6.6,9 13.1,11.9 19.4,15.5 C46.2,31 64,55.9 71.2,83.6 C95.2,103.9 110.5,134.3 110.5,168.2 C110.5,178 109.2,187.4 106.9,196.4 C139,169.7 153,127.3 144.1,87.3 C139.2,70.3 131.4,54.6 121.3,40.7 C92,5.3 43.4,-8.3 0,6.7 L0,6.7 Z"></path>
                </g>
                <path d="M150,27.7 C156.6,30 163.1,32.9 169.4,36.5 C196.2,52 214,76.9 221.2,104.6 C245.2,124.9 260.5,155.3 260.5,189.2 C260.5,199 259.2,208.4 256.9,217.4 C289,190.7 303,148.3 294.1,108.3 C289.2,91.3 281.4,75.6 271.3,61.7 C242,26.3 193.4,12.7 150,27.7 L150,27.7 Z" id="Shape" fill="#6CBCE9"></path>
                <g opacity="0.6" transform="translate(150.000000, 104.000000)" id="Shape" fill="#1C75BC">
                    <path d="M71.2,0.6 C78.2,27.7 75,57.6 59.9,83.8 C46,107.9 24.4,124.8 0,133.2 C29.2,143.2 62.5,141 91.4,124.4 C97,121.2 102.2,117.5 106.9,113.6 C109.3,104.6 110.5,95.1 110.5,85.4 C110.6,51.3 95.3,20.9 71.2,0.6 L71.2,0.6 Z"></path>
                </g>
                <path d="M221.2,104.6 C228.2,131.7 225,161.6 209.9,187.8 C196,211.9 174.4,228.8 150,237.2 C179.2,247.2 212.5,245 241.4,228.4 C247,225.2 252.2,221.5 256.9,217.6 C259.3,208.6 260.5,199.1 260.5,189.4 C260.6,155.3 245.3,124.9 221.2,104.6 L221.2,104.6 Z" id="Shape" fill="#52A7D9"></path>
                <g opacity="0.6" transform="translate(3.000000, 21.000000)" id="Shape" fill="#27AAE1">
                    <path d="M39.6,196.1 C37.3,187.2 36.1,177.9 36.1,168.3 C36.1,134.1 51.6,103.5 76,83.2 C83.3,55.7 101.1,30.9 127.7,15.5 C134,11.9 140.5,8.9 147.1,6.7 C103.4,-8.4 54.4,5.5 25.2,41.6 C15.5,55 8,70.1 3.2,86.3 C-6.2,126.4 7.6,169.1 39.6,196.1 L39.6,196.1 Z"></path>
                </g>
                <path d="M42.6,217.1 C40.3,208.2 39.1,198.9 39.1,189.3 C39.1,155.1 54.6,124.5 79,104.2 C86.3,76.7 104.1,51.9 130.7,36.5 C137,32.9 143.5,29.9 150.1,27.7 C106.4,12.6 57.4,26.5 28.2,62.6 C18.5,76 11,91.1 6.2,107.3 C-3.2,147.4 10.6,190.1 42.6,217.1 L42.6,217.1 Z" id="Shape" fill="#7BD2F3"></path>
                <g opacity="0.6" transform="translate(39.000000, 104.000000)" id="Shape" fill="#27AAE1">
                    <path d="M51.1,83.8 C35.9,57.5 32.7,27.4 39.9,0.2 C15.5,20.5 -7.10542736e-15,51.1 -7.10542736e-15,85.3 C-7.10542736e-15,94.9 1.2,104.2 3.5,113.1 C8.4,117.3 13.8,121 19.6,124.4 C48.5,141.1 81.7,143.3 111,133.2 C86.6,124.8 65,107.9 51.1,83.8 L51.1,83.8 Z"></path>
                </g>
                <g opacity="0.6" transform="translate(78.000000, 27.000000)" id="Shape" fill="#27AAE1">
                    <path d="M143.2,77.6 C136,49.9 118.1,24.9 91.4,9.5 C85.1,5.9 78.6,2.9 72,0.7 C65.4,3 58.9,5.9 52.6,9.5 C26,24.9 8.2,49.6 0.9,77.2 C20.1,61.2 44.8,51.5 71.8,51.5 C99,51.5 124,61.3 143.2,77.6 L143.2,77.6 Z"></path>
                </g>
                <path d="M221.2,104.6 C214,76.9 196.1,51.9 169.4,36.5 C163.1,32.9 156.6,29.9 150,27.7 C143.4,30 136.9,32.9 130.6,36.5 C104,51.9 86.2,76.6 78.9,104.2 C98.1,88.2 122.8,78.5 149.8,78.5 C177,78.5 202,88.3 221.2,104.6 L221.2,104.6 Z" id="Shape" fill="#64C6F1"></path>
                <g opacity="0.6" transform="translate(75.000000, 78.000000)" id="Shape" fill="#27AAE1">
                    <path d="M135,109.8 C150.1,83.6 153.3,53.8 146.3,26.6 C127,10.3 102,0.5 74.8,0.5 C47.8,0.5 23.1,10.1 3.9,26.2 C-3.3,53.5 -0.1,83.5 15.1,109.8 C29,133.9 50.6,150.8 75,159.2 C99.4,150.8 121,133.9 135,109.8 L135,109.8 Z"></path>
                </g>
                <path d="M221.2,104.6 C202,88.3 177,78.5 149.8,78.5 C122.8,78.5 98.1,88.1 78.9,104.2 C54.5,124.5 39,155.1 39,189.3 C39,198.9 40.2,208.2 42.5,217.1 C47.4,221.3 52.8,225 58.6,228.4 C87.5,245.1 120.7,247.3 150,237.2 C174.4,228.8 196,211.9 209.9,187.8 C225.1,161.6 228.3,131.8 221.2,104.6 L221.2,104.6 Z" id="Shape" fill="#5CBDEB"></path>
            </g>
        </g>
    </g>
</svg>